<svg width="63" height="69" viewBox="0 0 63 69" fill="none" xmlns="http://www.w3.org/2000/svg">
<path d="M5.5 0.807243C4.8125 1.7812 5.5625 2.41141 7.875 2.81245C9.0625 3.04162 10.375 3.61454 10.8125 4.13017C11.5625 4.93224 11.5 4.98954 10.125 4.58849C7.875 3.90099 3.0625 4.07287 1.4375 4.81767C-0.999998 6.07808 0.250002 6.88016 4.25 6.70829L7.9375 6.53641L6 7.62495C3.9375 8.82808 1 13.5833 1.6875 14.6145C2.5 15.8177 3.8125 15.1302 4.5 13.1822C5.375 10.7187 7.8125 8.88537 10.3125 8.88537H12.1875L9.3125 11.177C6.4375 13.526 4.6875 16.6198 4.375 20.0573C4.25 21.2604 4.4375 21.776 5.125 21.776C5.75 21.776 6.5 20.5729 7.1875 18.4531C8.8125 13.7552 14.5 8.82808 14.5 12.151C14.5 12.6666 16 16.1041 17.875 19.7135C21.75 27.276 22.5625 30.427 22.8125 38.1041L22.9375 43.5468L13.125 43.7187C3.3125 43.8333 3.25 43.8333 2.9375 42.5156C2.25 40.052 3.875 33.3489 6.125 29.2812C7.6875 26.3593 8.125 25.1562 7.625 24.6979C5.875 23.151 1.9375 30.3698 0.687502 37.4739C-0.187498 42.2291 1 48.4739 3.6875 53.5156C5.75 57.526 12.5 63.8281 16.8125 65.8333C37.3125 75.3437 61.375 61.9375 61.375 41.1406C61.375 35.3541 60.375 31.802 58.75 31.802C57.6875 31.802 57.5625 32.0312 57.875 33.3489C58.125 34.2656 58.5 36.9583 58.6875 39.3645L59.0625 43.8333H54.5625C50.25 43.8333 50.125 43.776 50.125 42.401C50.125 40.1666 48.4375 37.6458 46.375 36.6718C42.0625 34.6093 37.3125 36.6145 35.75 41.1406C34.875 43.7187 34.75 43.8333 32.4375 43.8333C30.25 43.8333 30.0625 43.7187 30.5 42.5156C32 37.9895 35.5625 33.1198 41.375 27.5052C44.8125 24.1823 47.625 21.2031 47.625 20.802C47.625 19.7135 50.25 22.2343 51.1875 24.2395C51.6875 25.3281 52 27.6198 51.9375 29.5677C51.75 33.3489 52.3125 34.3229 53.625 32.7187C55.125 30.7708 54.75 26.0729 52.75 22.4062C50.8125 18.9114 51.3125 18.2239 54.1875 20.4583C55.375 21.4323 55.9375 22.5781 56.25 24.6406C56.5625 26.5885 57 27.5052 57.625 27.5052C59.1875 27.5052 58.8125 22.1198 57.125 19.8854C55.4375 17.7656 56.3125 17.4218 59.1875 19.1979C61.375 20.5156 62.625 20.6875 62.625 19.5989C62.625 18.2812 60.375 16.8489 56.5625 15.7604L52.9375 14.7291L56.25 14.6718C59.0625 14.6145 59.5 14.4427 59.5 13.4687C59.5 12.4947 59.0625 12.3229 56.375 12.3229C54.625 12.3229 52.375 12.7239 51.4375 13.1822C49.6875 13.9843 49.625 13.927 49.25 12.6666C48.75 10.8906 46.5 8.31245 45.375 8.31245C44.125 8.31245 44.3125 9.91662 45.75 11.5781C47.5625 13.6979 47.3125 14.2708 45.125 12.8385C42.125 10.776 33.5 11.177 34 13.3541C34.125 13.927 34.6875 14.2708 35.4375 14.1562C39.4375 13.5833 42.6875 13.8697 43.875 14.9583C45.0625 16.0468 45.0625 16.0468 42.0625 16.0468C37.375 16.0468 30.5 20.3437 32.4375 22.1198C33 22.6354 33.6875 22.4062 35.3125 21.1458C38.1875 18.7968 40.9375 17.8229 43.5625 18.2812C44.75 18.5104 45.75 18.9114 45.75 19.2552C45.75 19.5416 42.9375 22.5208 39.4375 25.9583C34.5 30.7708 32.5625 33.177 30.375 37.1875C28.875 39.9375 27.625 42.5729 27.625 43.0312C27.625 43.4895 27.25 43.8333 26.75 43.8333C26.125 43.8333 25.8125 42.2864 25.5 37.5312C24.9375 29.625 24 26.3593 20.125 18.6823C18.375 15.302 17 11.9218 17 11.177C17 10.0312 17.25 9.91662 18.9375 10.2604C21.75 10.776 24.375 12.6666 25.75 15.2448C27.0625 17.5937 28.0625 18.052 28.625 16.677C29.4375 14.7291 23.3125 8.31245 20.6875 8.31245C19.1875 8.31245 18.625 7.39579 19.875 6.93745C21.625 6.30724 23 6.53641 26.0625 8.02599C27.75 8.77079 29.3125 9.28641 29.625 9.11454C30.875 8.36974 29.875 7.16662 26.875 5.79162C23.375 4.18745 21.75 4.01558 19.25 4.87495C16.9375 5.67704 17.125 4.47392 19.5 3.27079C21.25 2.35412 22.125 0.291618 20.75 0.291618C19.4375 0.291618 16.375 2.06766 15.75 3.1562C15.0625 4.30204 15 4.24474 12.6875 2.58328C10.1875 0.692657 6.1875 -0.281296 5.5 0.807243ZM57 50.7083C56.375 51.7968 55.6875 51.8541 30.8125 51.8541C5.8125 51.8541 5.25 51.8541 4.9375 50.7083C4.625 49.5625 4.9375 49.5625 31.125 49.5625C57.5 49.5625 57.6875 49.5625 57 50.7083ZM53.875 55.75C53.875 57.4114 52.0625 57.5833 31.0625 57.5833C10.5 57.5833 9.625 57.526 8.5625 56.4375C7.4375 55.2916 7.5 55.2916 30.625 55.2916C43.4375 55.2916 53.875 55.5208 53.875 55.75ZM48.25 61.3073C48.25 61.4218 47.4375 61.9375 46.375 62.4531C44.9375 63.1406 41.9375 63.3125 30.625 63.3125C17.75 63.3125 16.5625 63.1979 15.125 62.1666C13.5625 61.0208 13.5625 61.0208 30.9375 61.0208C40.4375 61.0208 48.25 61.1354 48.25 61.3073Z" fill="url(#paint0_linear_510_142)"/>
<defs>
<linearGradient id="paint0_linear_510_142" x1="31.409" y1="68.9492" x2="31.409" y2="0.291618" gradientUnits="userSpaceOnUse">
<stop stop-color="#66C2E0"/>
<stop offset="1" stop-color="#004553"/>
</linearGradient>
</defs>
</svg>
